# xmcd CD database file
#
# Track frame offsets:
#	150
#	14308
#	27659
#	41491
#	55834
#	68713
#	81751
#	94097
#	107157
#	120149
#	133688
#	146629
#	159146
#	170935
#	182879
#	195538
#	206645
#	219273
#	231830
#
# Disc length: 3244 seconds
#
# Revision: 0
# Processed by: cddbd v1.5.2PL0 Copyright (c) Steve Scherf et al.
# Submitted via: CDex 1.51
#
DISCID=070caa13
DTITLE=Kokomo Arnold - Back On The Job
DYEAR=1900
DGENRE=Blues
TTITLE0=Big Ship Blues
TTITLE1=Crying Blues
TTITLE2=Grandpa Got Drunk
TTITLE3=Black Mattie
TTITLE4=Neck Bone Blues
TTITLE5=Buddie Brown Blues
TTITLE6=Rocky Road Blues
TTITLE7=Head Cuttin Blues
TTITLE8=Broke Man Blues
TTITLE9=Back On  The Job
TTITLE10=Shine On, Moon
TTITLE11=Your Ways And Actions
TTITLE12=Tired Of Runnin´ From Door To Door
TTITLE13=My Well Is  Dry
TTITLE14=Midnight Blues
TTITLE15=Goin´ Down In Galilee
TTITLE16=Bad Luck Blues
TTITLE17=Kid Man Blues
TTITLE18=Something´s Hot
EXTD=
EXTT0=
EXTT1=
EXTT2=
EXTT3=
EXTT4=
EXTT5=
EXTT6=
EXTT7=
EXTT8=
EXTT9=
EXTT10=
EXTT11=
EXTT12=
EXTT13=
EXTT14=
EXTT15=
EXTT16=
EXTT17=
EXTT18=
PLAYORDER=
